<?xml version="1.0" standalone="no"?><!DOCTYPE svg PUBLIC "-//W3C//DTD SVG 1.1//EN" "http://www.w3.org/Graphics/SVG/1.1/DTD/svg11.dtd"><svg t="1624849163627" class="icon" viewBox="0 0 1024 1024" version="1.1" xmlns="http://www.w3.org/2000/svg" p-id="1794" xmlns:xlink="http://www.w3.org/1999/xlink" width="200" height="200"><defs><style type="text/css"></style></defs><path d="M616.883 560.058c-1.759 1.758-84.812 111.267-222.931 111.267-153.551 0-278.028-124.479-278.028-278.029 0-153.55 124.479-278.028 278.028-278.028 153.549 0 278.028 124.478 278.028 278.028 0 41.227-8.978 80.356-25.077 115.545 10.229 10.23-3.585-4.228 59.143 58.5 28.854-51.495 45.372-110.812 45.372-174.045 0-197.424-160.042-357.467-357.467-357.467s-357.466 160.042-357.466 357.467c0 197.424 160.042 357.466 357.467 357.466 84.393 0 161.817-29.419 222.967-78.329l316.64 316.64 56.169-56.169-372.845-372.845z" p-id="1795" fill="#dbdbdb"></path></svg>