<?xml version="1.0" standalone="no"?><!DOCTYPE svg PUBLIC "-//W3C//DTD SVG 1.1//EN" "http://www.w3.org/Graphics/SVG/1.1/DTD/svg11.dtd"><svg t="1624849250119" class="icon" viewBox="0 0 1024 1024" version="1.1" xmlns="http://www.w3.org/2000/svg" p-id="2904" xmlns:xlink="http://www.w3.org/1999/xlink" width="200" height="200"><defs><style type="text/css"></style></defs><path d="M818.05312 281.6H210.36544a71.68 71.68 0 0 0-71.33184 64.63488l-46.52032 471.04c-3.8912 39.3984 24.88832 74.48576 64.28672 78.37696a71.68 71.68 0 0 0 7.04512 0.34816h700.72832c39.58784 0 71.68-32.09216 71.68-71.68a71.68 71.68 0 0 0-0.34304-7.04512l-46.52544-471.04A71.68 71.68 0 0 0 818.05312 281.6zM210.36544 343.04h607.68768a10.24 10.24 0 0 1 10.1888 9.23136l46.52544 471.04a10.24 10.24 0 0 1-10.1888 11.24864H163.84a10.24 10.24 0 0 1-10.1888-11.24864l46.52032-471.04A10.24 10.24 0 0 1 210.36544 343.04z" fill="#dbdbdb" p-id="2905"></path><path d="M514.21184 128c101.79584 0 184.32 82.52416 184.32 184.32a30.72 30.72 0 0 1-61.41952 1.152l-0.02048-1.152c0-67.8656-55.0144-122.88-122.88-122.88s-122.88 55.0144-122.88 122.88a30.72 30.72 0 1 1-61.44 0c0-101.79584 82.51904-184.32 184.32-184.32z" fill="#dbdbdb" p-id="2906"></path></svg>